<svg width="68" height="50" viewBox="0 0 68 50" fill="none" xmlns="http://www.w3.org/2000/svg">
<g clip-path="url(#clip0_13801_5535)">
<path d="M64.8632 0H3.13682C1.4044 0 0 1.38269 0 3.08833V46.9117C0 48.6173 1.4044 50 3.13682 50H64.8632C66.5956 50 68 48.6173 68 46.9117V3.08833C68 1.38269 66.5956 0 64.8632 0Z" fill="#545776"/>
<path d="M45.4023 34.4595C44.3973 34.4585 43.3934 34.3925 42.3972 34.2619C41.4666 34.1506 40.5565 33.9115 39.6933 33.5516C38.9393 33.2465 38.2765 32.7576 37.7673 32.1309C37.2618 31.4502 37.0073 30.62 37.0458 29.7776V9.35144H42.3094V19.1414L41.2993 17.4737C41.7556 16.9627 42.3212 16.5577 42.9556 16.2878C43.6102 15.9976 44.2995 15.7901 45.007 15.6702C45.5783 15.5641 46.1574 15.5042 46.7386 15.491C49.4279 15.491 51.4752 16.2899 52.8805 17.8876C54.2858 19.4853 54.9884 21.82 54.9884 24.8919C55.0316 26.4359 54.7871 27.9745 54.2669 29.4317C53.8522 30.562 53.1605 31.5741 52.2531 32.378C51.3716 33.1182 50.3379 33.6618 49.2229 33.9716C47.9795 34.3128 46.693 34.4771 45.4023 34.4595ZM45.3333 30.0618C46.2133 30.104 47.0864 29.8891 47.8427 29.4441C48.4663 29.0274 48.9388 28.426 49.1916 27.727C49.4801 26.9177 49.6203 26.0644 49.6056 25.2069C49.6516 24.1051 49.468 23.0058 49.0661 21.9765C48.7784 21.2561 48.2611 20.6471 47.5918 20.2409C46.9315 19.8766 46.1841 19.6931 45.4274 19.7097C44.8958 19.7142 44.366 19.7721 43.8464 19.8826C43.3028 19.9909 42.7799 20.1826 42.2968 20.4509V28.4002C42.2839 28.5835 42.3127 28.7674 42.3811 28.9383C42.4494 29.1093 42.5557 29.2631 42.6921 29.3885C43.0065 29.6516 43.3847 29.8303 43.79 29.9073C44.2966 30.0178 44.8143 30.0717 45.3333 30.0679V30.0618Z" fill="white"/>
<path d="M13.3567 33.9284V10.2718H23.0118C27.0981 10.2718 30.101 11.2724 32.0208 13.2736C33.9405 15.2749 34.9004 18.2191 34.9004 22.1063C34.9004 25.9852 33.9405 28.9232 32.0208 30.9203C30.101 32.9175 27.0981 33.916 23.0118 33.916L13.3567 33.9284ZM19.1912 29.4997H22.328C24.4903 29.4997 26.1298 28.9088 27.2465 27.727C28.3632 26.5411 28.9216 24.6757 28.9216 22.1186C28.9216 19.5615 28.3632 17.6344 27.2465 16.4608C26.1298 15.2872 24.4924 14.6943 22.328 14.6943H19.1912V29.4997Z" fill="white"/>
<path d="M32.6857 39.0857V40.6361H13.0178V39.0734L32.6857 39.0857Z" fill="white"/>
<path d="M52.3534 39.0857V40.6361H32.6855V39.0734L52.3534 39.0857Z" fill="white"/>
</g>
<defs>
<clipPath id="clip0_13801_5535">
<rect width="68" height="50" fill="white"/>
</clipPath>
</defs>
</svg>
