<?xml version="1.0" encoding="iso-8859-1"?>
<!-- Uploaded to: SVG Repo, www.svgrepo.com, Generator: SVG Repo Mixer Tools -->
<!DOCTYPE svg PUBLIC "-//W3C//DTD SVG 1.1//EN" "http://www.w3.org/Graphics/SVG/1.1/DTD/svg11.dtd">
<svg fill="#f8643b" version="1.1" id="Capa_1" xmlns="http://www.w3.org/2000/svg" xmlns:xlink="http://www.w3.org/1999/xlink" 
	 width="800px" height="800px" viewBox="0 0 267.874 267.874"
	 xml:space="preserve">
<g>
	<g>
		<polygon points="106.808,180.323 128.038,146.8 95.646,132.275 85.587,146.8 		"/>
		<polygon points="139.044,146.8 160.274,180.323 181.494,146.8 171.433,132.275 		"/>
		<path d="M28.455,267.874h32.133h15.275h29.438h3.102h25.427l13.753-13.592l2.279,12.132l-1.264,1.46h11.671h1.513h39.141h7.851
			h30.654c5.852,0,8.974-4.453,6.954-9.952l-34.48-94.185c-0.777-2.217-1.947-4.147-3.263-5.986
			c-0.596-0.844-1.905-2.236-1.905-2.236c-2.771-3.123-6.188-5.35-10.072-6.333l-5.99-0.591h-5.981
			c-0.072,0.425-0.104,0.87-0.347,1.254l-4.08,6.451l-14.976,23.644l-2.164,3.428c-0.616,0.974-1.688,1.554-2.833,1.554
			c-1.144,0-2.216-0.58-2.837-1.554l-9.994-15.782l2.408,10.424l-12.575,21.359l2.312,12.345l-13.908,13.742l4.894-26.087
			l-12.572-21.359l2.573-11.455l-10.654,16.813c-0.614,0.974-1.691,1.554-2.835,1.554c-1.142,0-2.216-0.58-2.832-1.554l-2.509-3.95
			l-10.636-16.793l-8.081-12.77c-0.238-0.394-0.277-0.828-0.344-1.258h-5.474l-6.017,0.585c-3.889,0.989-7.301,3.221-10.082,6.338
			c0,0-1.292,1.398-1.802,2.092c-1.396,1.968-2.561,3.925-3.351,6.131l-34.481,94.18C19.476,263.421,22.596,267.874,28.455,267.874z
			 M122.35,243.31l19.562-19.33l3.382,18.046l-26.08,25.771l-1.193-1.383L122.35,243.31z"/>
		<path d="M82.542,92.481c-0.753-18.815-1.261-65.936,12.197-69.139c5.393-1.3,8.394,0.684,12.189,3.174
			c7.185,4.714,20.573,13.533,71.111,12.244l1.46-0.036l0.809,1.214c0.403,0.604,9.507,14.639,10.791,49.109
			c1.678-1.352,3.66-3.355,5.427-6.032c1.31-5.212,2.076-10.641,2.076-16.262c0-35.708-28.024-64.761-63.3-66.573V0
			c-0.616,0-1.163,0.075-1.761,0.085C132.965,0.075,132.397,0,131.802,0v0.176C96.505,1.983,68.481,31.03,68.481,66.741
			c0,5.048,0.616,9.942,1.68,14.667C73.794,86.552,78.19,91.27,82.542,92.481z"/>
		<path d="M189.696,96.267l-3.713,1.734l-0.062-4.101c-0.455-30.349-7.15-45.604-9.336-49.798
			c-50.921,1.054-64.975-8.166-72.566-13.147c-3.464-2.269-4.901-3.195-8.055-2.455c-6.845,1.634-9.481,35.937-7.993,66.785
			l0.125,2.586l-2.584,0.187c-0.285,0.021-0.572,0.031-0.859,0.031c-3.684,0-7.18-1.711-10.369-4.256
			c9.958,22.323,31.775,38.194,57.513,39.525v0.176c0.596,0,1.157-0.083,1.74-0.088c0.593,0.005,1.145,0.088,1.76,0.088v-0.176
			c25.412-1.315,46.994-16.811,57.112-38.693C190.918,95.666,189.867,96.186,189.696,96.267z"/>
	</g>
</g>
</svg>