<?xml version="1.0" encoding="iso-8859-1"?>
<!-- Uploaded to: SVG Repo, www.svgrepo.com, Generator: SVG Repo Mixer Tools -->
<!DOCTYPE svg PUBLIC "-//W3C//DTD SVG 1.1//EN" "http://www.w3.org/Graphics/SVG/1.1/DTD/svg11.dtd">
<svg fill="#f8643b" version="1.1" id="Capa_1" xmlns="http://www.w3.org/2000/svg" xmlns:xlink="http://www.w3.org/1999/xlink" 
	 width="800px" height="800px" viewBox="0 0 420.746 420.746"
	 xml:space="preserve">
<g>
	<g>
		<path d="M397.194,31.776h-31.402h-19.624h-86.356h-27.475h-31.406h-23.55v25.295v310.521v25.303h23.55h31.406h27.475h86.356
			h19.624h31.402h23.552v-25.303V57.071V31.776H397.194z M342.24,55.328v39.25h-86.352v-39.25H342.24z M200.931,55.328h31.406
			v35.325v27.477h27.475h86.356h19.624V90.653V55.328h31.402v141.306h-48.405c-5.41-24.658-27.399-43.176-53.648-43.176
			c-26.26,0-48.245,18.518-53.65,43.176h-40.56V55.328z M266.067,196.634c4.677-11.483,15.917-19.626,29.073-19.626
			c13.141,0,24.386,8.143,29.055,19.626H266.067z M324.195,220.184c-4.669,11.493-15.914,19.628-29.055,19.628
			c-13.156,0-24.396-8.135-29.073-19.628H324.195z M255.889,369.344v-39.253h86.352v39.253H255.889z M397.194,369.344h-31.402
			v-3.927v-39.253v-19.625h-19.624h-86.356h-27.475v19.625v39.253v3.927h-31.406v-149.16h40.56
			c5.405,24.657,27.391,43.18,53.65,43.18c26.249,0,48.238-18.522,53.648-43.18h48.405V369.344z"/>
		<path d="M23.55,27.851c13.01,0,23.552,10.545,23.552,23.551c0,13.006-10.542,23.552-23.552,23.552
			C10.544,74.954,0,64.409,0,51.402C0,38.396,10.544,27.851,23.55,27.851z"/>
		<rect x="59.625" y="39.627" width="62.802" height="23.552"/>
		<path d="M23.55,90.653c13.01,0,23.552,10.546,23.552,23.552S36.56,137.757,23.55,137.757C10.544,137.757,0,127.211,0,114.205
			S10.544,90.653,23.55,90.653z"/>
		<rect x="59.625" y="102.429" width="62.802" height="23.552"/>
		<path d="M23.55,153.458c13.01,0,23.552,10.545,23.552,23.549c0,13.008-10.542,23.552-23.552,23.552
			C10.544,200.559,0,190.016,0,177.007C0,164.003,10.544,153.458,23.55,153.458z"/>
		<rect x="59.625" y="165.233" width="62.802" height="23.55"/>
		<path d="M23.55,216.26c13.01,0,23.552,10.548,23.552,23.552c0,13-10.542,23.552-23.552,23.552C10.544,263.363,0,252.812,0,239.812
			C0,226.808,10.544,216.26,23.55,216.26z"/>
		<rect x="59.625" y="228.034" width="62.802" height="23.552"/>
		<path d="M23.55,279.064c13.01,0,23.552,10.548,23.552,23.552c0,13-10.542,23.548-23.552,23.548
			C10.544,326.164,0,315.616,0,302.616C0,289.612,10.544,279.064,23.55,279.064z"/>
		<rect x="59.625" y="290.838" width="62.802" height="23.552"/>
		<path d="M23.55,341.865c13.01,0,23.552,10.551,23.552,23.552c0,13.004-10.542,23.552-23.552,23.552
			C10.544,388.969,0,378.421,0,365.417C0,352.416,10.544,341.865,23.55,341.865z"/>
		<rect x="59.625" y="353.643" width="62.802" height="23.552"/>
	</g>
</g>
</svg>