<?xml version="1.0" encoding="iso-8859-1"?>
<!-- Uploaded to: SVG Repo, www.svgrepo.com, Generator: SVG Repo Mixer Tools -->
<!DOCTYPE svg PUBLIC "-//W3C//DTD SVG 1.1//EN" "http://www.w3.org/Graphics/SVG/1.1/DTD/svg11.dtd">
<svg fill="#f8643b" version="1.1" id="Capa_1" xmlns="http://www.w3.org/2000/svg" xmlns:xlink="http://www.w3.org/1999/xlink" 
	 width="800px" height="800px" viewBox="0 0 321.021 321.021"
	 xml:space="preserve">
<g>
	<g>
		<path d="M85.927,55.02c0,30.276,24.544,54.815,54.816,54.815c30.268,0,54.813-24.544,54.813-54.815
			c0-30.274-24.539-54.818-54.813-54.818C110.466,0.201,85.927,24.745,85.927,55.02z M140.743,10.806
			c24.381,0,44.208,19.838,44.208,44.214c0,24.373-19.832,44.211-44.208,44.211c-24.376,0-44.211-19.838-44.211-44.211
			C96.532,30.644,116.361,10.806,140.743,10.806z"/>
		<path d="M24.949,188.172l22.81-5.67c0.35-0.083,0.684-0.124,0.997-0.124c1.968,0,2.26,1.678,2.26,2.677v109.45
			c0,7.561,6.149,13.712,13.707,13.712h143.736c-2.816-2.797-5.349-5.862-7.668-9.093H64.723c-2.545,0-4.619-2.071-4.619-4.619
			v-109.45c0-6.706-4.878-11.759-11.348-11.759c-1.049,0-2.121,0.129-3.188,0.393l-22.814,5.67
			c-2.449,0.622-5.038-0.937-5.662-3.381l-7.858-30.797c-0.303-1.188-0.125-2.423,0.502-3.469c0.626-1.048,1.628-1.787,2.822-2.084
			l72.08-17.896c3.601-0.916,7.301-1.382,11.309-1.382l10.077-0.031c5.069,14.633,18.796,24.564,34.548,24.564
			c15.754,0,29.487-9.937,34.551-24.564l10.661,0.031c3.738,0,7.451,0.466,11.076,1.396l72.059,17.882
			c1.196,0.298,2.195,1.036,2.822,2.084c0.627,1.046,0.803,2.281,0.502,3.469l-7.854,30.797c-0.627,2.444-3.206,4.008-5.665,3.381
			l-22.701-5.639c-1.066-0.259-2.139-0.394-3.189-0.394c-6.468,0-11.346,5.054-11.346,11.76v12.671
			c2.91-1.781,5.919-3.423,9.088-4.774v-7.896c0-0.999,0.29-2.677,2.258-2.677c0.311,0,0.642,0.041,0.994,0.135l20.158,5.002
			c1.414-0.083,2.822-0.218,4.257-0.218c2.19,0,4.35,0.135,6.487,0.331c4.097-1.563,7.328-5.002,8.456-9.444l7.855-30.797
			c0.911-3.547,0.373-7.239-1.507-10.377c-1.874-3.138-4.873-5.359-8.43-6.24l-72.027-17.875c-4.329-1.108-8.804-1.672-13.309-1.672
			l-17.629-0.026l-0.839,3.485c-2.979,12.412-13.97,21.083-26.734,21.083c-12.756,0-23.75-8.67-26.734-21.083l-0.836-3.485H96.462
			l-0.836,0.034c-4.451,0-8.904,0.557-13.214,1.659l-72.043,17.873c-3.557,0.888-6.555,3.104-8.433,6.242
			c-1.877,3.138-2.41,6.83-1.504,10.377l7.858,30.797c1.559,6.104,7.042,10.361,13.336,10.361
			C22.744,188.571,23.862,188.441,24.949,188.172z"/>
		<path d="M124.9,251.744V174.61h-12.663c0,0.674-0.197,1.699-0.583,3.086c-0.673,2.305-1.659,4.153-2.97,5.531
			c-1.903,2.02-4.391,3.365-7.428,4.038c-1.906,0.425-5.251,0.746-10.027,0.958v10.32h18.139v53.2H124.9z"/>
		<path d="M174.263,174.072c-9.822,0-16.712,3.459-20.668,10.372c-3.954,6.912-5.932,16.74-5.932,29.469
			c0,12.732,1.978,22.535,5.932,29.422c3.956,6.876,10.846,10.314,20.668,10.314c5.494,0,10.035-1.118,13.696-3.272
			c1.336-12.345,5.898-23.716,12.774-33.337c0.031-1.057,0.125-2.02,0.125-3.127c0-12.729-1.979-22.557-5.93-29.469
			C190.978,177.531,184.086,174.072,174.263,174.072z M183.118,234.263c-1.398,4.701-4.355,7.053-8.855,7.053
			c-4.499,0-7.479-2.352-8.932-7.053c-1.455-4.691-2.18-11.475-2.18-20.34c0-9.289,0.725-16.176,2.18-20.645
			c1.452-4.469,4.433-6.706,8.932-6.706c4.5,0,7.457,2.237,8.855,6.706c1.397,4.469,2.102,11.345,2.102,20.645
			C185.226,222.788,184.521,229.571,183.118,234.263z"/>
		<path d="M258.252,195.276c-9.947,0-19.314,2.377-27.672,6.499c-3.194,1.573-6.229,3.396-9.087,5.468
			c-15.736,11.407-26.016,29.888-26.016,50.808c0,15.731,5.82,30.064,15.379,41.073c2.771,3.189,5.856,6.089,9.212,8.668
			c10.585,8.14,23.799,13.028,38.184,13.028c34.668,0,62.77-28.102,62.77-62.77C321.021,223.389,292.92,195.276,258.252,195.276z
			 M290.087,267.47h-22.882v22.883c0,4.949-4.008,8.958-8.958,8.958c-4.945,0-8.953-4.009-8.953-8.958V267.47h-18.719h-4.168
			c-1.818,0-3.512-0.554-4.92-1.486c-2.429-1.6-4.039-4.35-4.039-7.467c0-3.127,1.61-5.872,4.039-7.477
			c1.408-0.933,3.102-1.481,4.92-1.481h4.168h18.719v-22.887c0-4.945,4.008-8.959,8.953-8.959c4.95,0,8.958,4.014,8.958,8.959
			v22.887h22.882c4.951,0,8.959,4.008,8.959,8.958C299.046,263.457,295.038,267.47,290.087,267.47z"/>
	</g>
</g>
</svg>