<?xml version="1.0" encoding="iso-8859-1"?>
<!-- Uploaded to: SVG Repo, www.svgrepo.com, Generator: SVG Repo Mixer Tools -->
<!DOCTYPE svg PUBLIC "-//W3C//DTD SVG 1.1//EN" "http://www.w3.org/Graphics/SVG/1.1/DTD/svg11.dtd">
<svg fill="#f8643b" version="1.1" id="Capa_1" xmlns="http://www.w3.org/2000/svg" xmlns:xlink="http://www.w3.org/1999/xlink" 
	 width="800px" height="800px" viewBox="0 0 415.288 415.288"
	 xml:space="preserve">
<g>
	<g>
		<path d="M127.442,133.673c0,0,2.651-2.258,7.574-5.382l21.211,52.497c0.008,0,0.008,0,0.016,0l0.503-0.028l2.403,0.142
			c18.943,1.281,33.694,16.99,33.694,36.021c0,6.944-1.978,13.509-5.482,19.095l1.22,1.234c2.038,0.89,3.925,2.24,5.626,3.995
			c0.644,0.729,1.012,1.219,1.415,1.788c0.735,1.042,1.737,2.561,2.435,4.552l1.373,3.735l0.92,0.288h-0.817l3.178,8.688h3.685
			l3.176-8.688h-1.152l1.311-0.421l1.356-3.71c0.687-1.884,1.667-3.402,2.35-4.377c0.407-0.568,0.924-1.29,1.726-2.031
			c1.806-1.908,4.027-3.427,6.596-4.509c-3.73-5.702-5.835-12.479-5.835-19.648c0-19.189,15.049-35.055,34.256-36.127l0.505-0.028
			l0.513,0.034l19.857-49.115c4.492,3.458,6.877,5.919,6.877,5.919l34.668-52.99c0,0-41.982-34.683-112.637-34.675
			c-62.803,0.019-109.449,38.62-109.449,38.62L127.442,133.673z M208.927,168.077c-1.961,0.283-4.135,0.509-6.099,0.509
			c-1.97,0-4.158-0.321-6.131-0.72c-3.35-0.687-5.989-3.4-5.989-5.662s2.106-2.331,5.23-1.208c1.663,0.595,3.657,1.052,5.879,1.052
			c2.362,0,4.734-0.511,6.796-1.162c3.647-1.154,6.335-0.786,6.335,1.655C214.942,164.975,212.282,167.59,208.927,168.077z
			 M190.708,144.878c0-2.347,1.897-4.254,4.248-4.254c2.346,0,4.248,1.901,4.248,4.254c0,2.358-1.901,4.256-4.248,4.256
			C192.605,149.126,190.708,147.224,190.708,144.878z M208.05,144.878c0-2.347,1.901-4.254,4.248-4.254
			c2.344,0,4.245,1.901,4.245,4.254c0,2.358-1.901,4.256-4.245,4.256C209.951,149.126,208.05,147.224,208.05,144.878z
			 M203.708,109.142c19.865,0.134,36.051,5.167,48.226,10.962c-0.093,0.218-0.225,0.415-0.309,0.651l-23.075,59.435l0.008,0.44
			h-0.505h-3.827h-5.005h-7.59c2.741-0.865,5.282-2.154,7.59-3.753v-36.772h-39.307c-2.268,4.067-3.661,8.682-3.661,13.677
			c0,12.631,8.329,23.221,19.776,26.848H179.96h-0.644h-0.449l0.012-0.44l-23.085-59.435c-0.303-0.865-0.735-1.633-1.222-2.364
			C167.18,113.335,183.785,109.011,203.708,109.142z"/>
		<path d="M7.306,364.701c5.749,2.06,12.083-0.914,14.148-6.664l23.079-59.438l-2.667,40.604
			c-0.479,7.189,2.426,13.561,7.251,17.869V243.761h-2.713h-0.637h-1.302h-0.646c-1.609,0.67-3.054,1.619-4.232,2.938
			c-0.353,0.276-0.547,0.581-0.769,0.874c-0.579,0.846-1.082,1.671-1.423,2.608L0.659,350.547
			C-1.415,356.298,1.567,362.621,7.306,364.701z"/>
		<path d="M94.587,364.701c5.745,2.06,12.083-0.914,14.148-6.664l5.344-13.762l5.34,13.762c2.08,5.75,8.406,8.724,14.17,6.664
			c5.73-2.088,8.72-8.403,6.654-14.154l-3.837-10.487v-96.299h-2.717h-0.645h-1.303h-0.643c-1.607,0.67-3.052,1.619-4.23,2.938
			c-0.354,0.276-0.551,0.581-0.77,0.874c-0.583,0.846-1.084,1.671-1.422,2.608l-10.592,28.926L103.5,250.181
			c-0.331-0.953-0.826-1.763-1.385-2.549c-0.248-0.353-0.471-0.673-0.705-0.941c-1.28-1.326-2.733-2.269-4.38-2.688
			c0.044-0.249-0.6-0.249-0.6-0.249h-1.302h-0.633h-2.725v96.291l-3.841,10.487C85.867,356.298,88.849,362.621,94.587,364.701z
			 M131.822,298.615l-1.609,24.517l-3.837-10.487L131.822,298.615z M101.801,312.661l-3.845,10.503l-1.617-24.565L101.801,312.661z"
			/>
		<path d="M185.135,216.924c0-15.139-11.88-27.455-26.832-28.217c-0.255-0.08-0.489-0.038-0.742-0.038
			c-0.24,0-0.487-0.032-0.735-0.032c-14.965,0.84-26.839,13.148-26.839,28.295c0,12.627,8.329,23.211,19.771,26.846h-5.5v117.762
			c2.174,0.693,4.458,1.166,6.906,1.166h2.645V241.813h7.851v120.892h2.639c2.448,0,4.741-0.473,6.917-1.166V243.761h-5.849
			C176.806,240.139,185.135,229.559,185.135,216.924z M148.88,203.591c2.347,0,4.248,1.901,4.248,4.256
			c0,2.353-1.901,4.256-4.248,4.256c-2.346,0-4.246-1.903-4.246-4.256C144.634,205.492,146.542,203.591,148.88,203.591z
			 M162.864,231.046c-1.964,0.28-4.14,0.505-6.104,0.505c-1.97,0-4.158-0.321-6.127-0.722c-3.354-0.682-5.993-3.395-5.993-5.658
			c0-2.261,2.114-2.329,5.23-1.21c1.663,0.597,3.661,1.058,5.879,1.058c2.366,0,4.734-0.513,6.8-1.166
			c3.641-1.15,6.334-0.782,6.334,1.654C168.883,227.947,166.206,230.553,162.864,231.046z M166.222,212.095
			c-2.346,0-4.248-1.903-4.248-4.256c0-2.354,1.901-4.256,4.248-4.256c2.348,0,4.248,1.902,4.248,4.256
			C170.47,210.191,168.57,212.095,166.222,212.095z"/>
		<path d="M202.962,358.037l1.867-4.821l1.872,4.813c2.076,5.75,8.406,8.724,14.166,6.656c4.492-1.627,7.27-5.875,7.277-10.38
			c0.773,0.974,1.556,1.932,2.481,2.766V243.761h-2.714h-0.645h-1.303h-0.641c-1.611,0.67-3.054,1.619-4.232,2.938
			c-0.353,0.276-0.553,0.581-0.77,0.874c-0.585,0.846-1.086,1.671-1.427,2.608l-14.066,38.407l-14.068-38.407
			c-0.329-0.953-0.824-1.763-1.381-2.549c-0.252-0.353-0.471-0.673-0.707-0.941c-1.276-1.326-2.731-2.269-4.378-2.688
			c0.046-0.249-0.599-0.249-0.599-0.249h-1.303h-0.637h-2.725v113.302c0.928-0.833,1.721-1.799,2.492-2.765
			c0,4.521,2.763,8.784,7.268,10.411C194.569,366.761,200.896,363.787,202.962,358.037z M226.041,298.615l-2.665,40.587
			c0,0.016,0,0.016,0,0.032l-6.359-17.373L226.041,298.615z M186.295,339.271c0-0.024,0.008-0.053,0-0.085l-2.667-40.587
			l9.035,23.275L186.295,339.271z"/>
		<path d="M281.685,364.701c5.75,2.06,12.082-0.914,14.153-6.664l2.545-6.561l2.553,6.561c2.084,5.75,8.412,8.724,14.167,6.664
			c4.019-1.459,6.632-5.001,7.161-8.957c0.821,0.858,1.603,1.748,2.553,2.469v-114.46h-4.023h-0.646h-1.303H318.2
			c-1.611,0.669-3.05,1.619-4.232,2.938c-0.353,0.269-0.553,0.589-0.765,0.882c-0.586,0.838-1.091,1.671-1.427,2.593l-13.386,36.56
			l-13.385-36.56c-0.332-0.938-0.821-1.755-1.382-2.533c-0.253-0.364-0.465-0.673-0.706-0.949c-1.277-1.335-2.729-2.269-4.376-2.681
			c0.044-0.253-0.597-0.253-0.597-0.253h-1.299h-0.633h-2.725v113.298c0.452-0.404,0.805-0.918,1.229-1.362
			C275.032,359.672,277.661,363.242,281.685,364.701z M318.921,298.615l-2.46,37.465l-5.867-16.021L318.921,298.615z
			 M286.192,320.074l-5.871,16.038l-2.46-37.497L286.192,320.074z"/>
		<path d="M376.504,247.648c-0.252-0.369-0.469-0.674-0.705-0.95c-1.282-1.326-2.729-2.268-4.381-2.681
			c0.049-0.257-0.597-0.257-0.597-0.257h-1.303h-0.637h-1.411v112.152c4.056-4.26,6.356-10.163,5.928-16.728l-2.669-40.587
			l23.078,59.438c2.076,5.75,8.408,8.724,14.167,6.664c5.734-2.088,8.724-8.403,6.66-14.154l-36.752-100.366
			C377.546,249.243,377.057,248.426,376.504,247.648z"/>
		<path d="M342.533,172.457c-0.245-0.359-0.469-0.673-0.705-0.95c-1.279-1.327-2.729-2.268-4.377-2.683
			c0.036-0.214-0.353-0.238-0.501-0.238c1.844,3.085,4.172,7.325,6.32,12.208l1.815,0.1c0.36,0.022,0.689,0.143,1.05,0.172
			l-2.216-6.075C343.591,174.06,343.094,173.232,342.533,172.457z"/>
		<path d="M285.495,168.572h-0.613h-0.645c-1.607,0.667-3.05,1.617-4.232,2.936c-0.353,0.276-0.545,0.591-0.766,0.877
			c-0.581,0.84-1.081,1.675-1.427,2.607l-5.157,14.124c0.926,0.768,1.8,1.585,2.661,2.438
			C277.861,182.331,282.382,173.775,285.495,168.572z"/>
		<path d="M372.232,216.924c0-15.139-11.874-27.455-26.83-28.217c-0.257-0.08-0.485-0.038-0.737-0.038
			c-0.245,0-0.493-0.032-0.737-0.032c-14.964,0.84-26.838,13.148-26.838,28.295c0,10.855,6.163,20.169,15.164,24.882h0.413v0.257
			c1.342,0.673,2.753,1.254,4.191,1.707h-4.191v118.179c1.787,0.445,3.643,0.749,5.598,0.749h3.956V241.813h7.851v120.892h1.326
			c2.941,0,5.702-0.597,8.231-1.595v-117.35h-7.161C363.908,240.139,372.232,229.559,372.232,216.924z M337.472,203.591
			c2.349,0,4.248,1.901,4.248,4.256c0,2.353-1.899,4.256-4.248,4.256c-2.345,0-4.244-1.903-4.244-4.256
			C333.228,205.492,335.127,203.591,337.472,203.591z M351.449,231.046c-1.963,0.28-4.14,0.505-6.104,0.505
			c-1.967,0-4.163-0.321-6.131-0.722c-3.351-0.682-5.987-3.395-5.987-5.658c0-2.261,2.101-2.329,5.226-1.21
			c1.663,0.597,3.659,1.058,5.883,1.058c2.36,0,4.729-0.513,6.801-1.166c3.639-1.15,6.332-0.782,6.332,1.654
			C357.469,227.947,354.8,230.553,351.449,231.046z M354.815,212.095c-2.348,0-4.247-1.903-4.247-4.256
			c0-2.354,1.899-4.256,4.247-4.256c2.345,0,4.248,1.902,4.248,4.256C359.063,210.191,357.16,212.095,354.815,212.095z"/>
		<path d="M311.432,113.516c-0.253-0.078-0.478-0.04-0.737-0.04c-0.245,0-0.474-0.03-0.733-0.03
			c-14.968,0.832-26.842,13.148-26.842,28.293c0,12.631,8.327,23.215,19.772,26.848h-10.468
			c-2.821,4.404-10.135,16.659-12.427,28.741c3.727,5.643,5.919,12.358,5.919,19.604c0,2.921-0.421,5.742-1.086,8.491l-0.869,13.148
			c1.166,0.754,2.288,1.619,3.321,2.686c0.642,0.733,1.019,1.218,1.419,1.779c0.733,1.05,1.731,2.572,2.429,4.552l1.374,3.743
			l0.918,0.288h-0.813l4.492,12.299l4.501-12.299h-1.15l1.314-0.412l1.354-3.719c0.681-1.88,1.663-3.402,2.349-4.376
			c0.404-0.569,0.926-1.291,1.723-2.024c1.815-1.919,4.031-3.434,6.592-4.516c-3.727-5.695-5.826-12.476-5.826-19.648
			c0-17.453,12.499-32.032,29.202-35.354c-2.689-5.823-5.566-10.58-7.113-12.992h-11.529c11.445-3.625,19.769-14.208,19.769-26.839
			C338.265,126.594,326.395,114.277,311.432,113.516z M302.102,129.587c2.345,0,4.248,1.897,4.248,4.254
			c0,2.346-1.903,4.256-4.248,4.256c-2.348,0-4.247-1.901-4.247-4.256C297.854,131.485,299.754,129.587,302.102,129.587z
			 M316.068,157.036c-1.96,0.285-4.132,0.511-6.096,0.511c-1.968,0-4.16-0.323-6.131-0.721c-3.351-0.684-5.987-3.4-5.987-5.659
			c0-2.26,2.107-2.334,5.229-1.21c1.663,0.597,3.654,1.05,5.879,1.05c2.36,0,4.729-0.517,6.793-1.168
			c3.646-1.154,6.339-0.783,6.339,1.659C322.095,153.929,319.426,156.549,316.068,157.036z M319.442,138.089
			c-2.345,0-4.248-1.902-4.248-4.254c0-2.351,1.903-4.256,4.248-4.256c2.344,0,4.248,1.897,4.248,4.256
			C323.69,136.188,321.786,138.089,319.442,138.089z"/>
		<path d="M82.01,165.889c0,12.629,8.321,23.209,19.769,26.846h-6.428c5.807,6.414,9.364,14.88,9.364,24.189
			c0,6.944-1.978,13.509-5.478,19.095l1.216,1.234c2.04,0.89,3.925,2.24,5.626,3.995c0.646,0.729,1.016,1.219,1.415,1.788
			c0.74,1.042,1.737,2.561,2.427,4.552l1.373,3.735l0.919,0.288h-0.81l1.704,4.661l1.713-4.661h-1.162l1.311-0.421l1.358-3.71
			c0.681-1.884,1.663-3.402,2.344-4.377c0.411-0.568,0.93-1.29,1.729-2.031c1.813-1.908,4.029-3.427,6.594-4.509
			c-3.731-5.702-5.831-12.479-5.831-19.648c0-9.285,3.581-17.75,9.388-24.181h-13.163c11.445-3.625,19.771-14.208,19.771-26.84
			c0-15.136-11.876-27.453-26.832-28.216c-0.249-0.08-0.479-0.038-0.737-0.038c-0.245,0-0.485-0.03-0.74-0.03
			C93.89,138.434,82.01,150.751,82.01,165.889z M118.249,158.287c2.347,0,4.248,1.902,4.248,4.254c0,2.358-1.901,4.256-4.248,4.256
			c-2.35,0-4.248-1.897-4.248-4.256C114.001,160.188,115.899,158.287,118.249,158.287z M100.909,158.287
			c2.344,0,4.246,1.902,4.246,4.254c0,2.358-1.902,4.256-4.246,4.256c-2.351,0-4.248-1.897-4.248-4.256
			C96.661,160.188,98.559,158.287,100.909,158.287z M101.889,178.652c1.665,0.593,3.657,1.05,5.881,1.05
			c2.36,0,4.733-0.509,6.796-1.162c3.645-1.16,6.336-0.785,6.336,1.657s-2.669,5.056-6.023,5.542
			c-1.961,0.285-4.136,0.511-6.097,0.511c-1.97,0-4.164-0.323-6.133-0.721c-3.35-0.686-5.987-3.4-5.987-5.663
			C96.661,177.606,98.773,177.528,101.889,178.652z"/>
		<path d="M62.017,213.726c-1.389,0-2.561-0.705-3.336-1.739l-14.569,13.661c1.709,5.214,4.945,9.69,9.127,13.064l7.834-7.346
			c-1.954-1.166-3.312-2.966-3.312-4.568c0-2.265,2.104-2.333,5.23-1.21c1.003,0.364,2.149,0.625,3.376,0.817l13.649-12.808
			c-0.219,0.027-0.433,0.128-0.667,0.128c-2.344,0-4.246-1.899-4.246-4.256c0-2.353,1.901-4.254,4.246-4.254
			c2.346,0,4.248,1.901,4.248,4.254c0,0.332-0.118,0.629-0.188,0.938l9.702-9.109c-2.974-4.472-7.198-8.015-12.175-10.203
			L64.75,206.282c0.9,0.784,1.507,1.902,1.507,3.188C66.263,211.826,64.361,213.726,62.017,213.726z"/>
		<path d="M42.705,216.915c0,1.01,0.143,1.984,0.241,2.974l32.532-30.522c-1.458-0.314-2.936-0.587-4.464-0.667
			c-0.254-0.08-0.481-0.038-0.741-0.038c-0.24,0-0.475-0.034-0.735-0.034C54.583,189.462,42.705,201.777,42.705,216.915z"/>
		<path d="M97.846,216.924c0-3.928-0.824-7.65-2.276-11.049l-21.275,19.949c0.465-0.116,0.952-0.209,1.385-0.345
			c3.641-1.15,6.332-0.782,6.332,1.655c0,2.436-2.667,5.061-6.021,5.542c-1.964,0.284-4.136,0.513-6.1,0.513
			c-1.028,0-2.104-0.1-3.186-0.229l-9.203,8.624c1.587,0.866,3.228,1.627,4.979,2.185h-5.504v117.766
			c2.174,0.689,4.458,1.17,6.907,1.17h2.648V243.77h7.851v118.936h2.637c2.451,0,4.743-0.48,6.915-1.17V243.761h-5.849
			C89.524,240.139,97.846,229.559,97.846,216.924z"/>
		<path d="M219.213,130.6c-4.202-2.914-9.208-4.749-14.647-5.034v-0.08c-0.252,0-0.487,0.034-0.739,0.034
			c-0.243,0-0.487-0.034-0.735-0.034v0.072c-7.863,0.399-14.81,4.038-19.693,9.538h35.806V130.6H219.213z"/>
		<path d="M227.736,140.097h-3.519v32.288c4.433-4.953,7.186-11.423,7.186-18.603C231.403,148.787,230.004,144.165,227.736,140.097z
			"/>
		<polygon points="224.218,135.072 224.218,135.096 224.242,135.096 		"/>
		<path d="M224.402,215.044h54.785c-0.4-5.896-2.568-11.257-6.043-15.605H230.43C226.963,203.795,224.787,209.148,224.402,215.044z
			 M260.457,203.591c2.353,0,4.248,1.901,4.248,4.256c0,2.353-1.896,4.256-4.248,4.256c-2.345,0-4.248-1.903-4.248-4.256
			C256.209,205.492,258.112,203.591,260.457,203.591z M243.117,203.591c2.352,0,4.247,1.901,4.247,4.256
			c0,2.353-1.896,4.256-4.247,4.256c-2.349,0-4.248-1.903-4.248-4.256C238.869,205.492,240.776,203.591,243.117,203.591z"/>
		<path d="M279.104,220.049h-54.642c0.437,3.836,1.604,7.43,3.427,10.645h16.582c-3.149-0.814-5.602-3.358-5.602-5.522
			c0-2.261,2.115-2.329,5.229-1.21c1.663,0.597,3.663,1.058,5.879,1.058c2.368,0,4.736-0.513,6.801-1.166
			c3.639-1.15,6.34-0.782,6.34,1.654c0,2.148-2.116,4.341-4.878,5.194h17.449C277.517,227.479,278.679,223.885,279.104,220.049z"/>
		<path d="M231.547,235.682c3.335,3.688,7.574,6.541,12.443,8.079h-5.506v117.767c2.18,0.689,4.464,1.162,6.908,1.162h2.646V241.802
			h7.851v120.888h2.645c2.444,0,4.729-0.473,6.913-1.162V243.761H259.6c4.869-1.547,9.104-4.392,12.442-8.079H231.547z"/>
		<path d="M251.793,188.661c-0.244,0-0.481-0.034-0.733-0.034c-5.875,0.329-11.241,2.477-15.625,5.811h32.688
			c-4.393-3.32-9.734-5.432-15.593-5.73C252.27,188.627,252.045,188.661,251.793,188.661z"/>
	</g>
</g>
</svg>